<?xml version="1.0" encoding="utf-8"?>
<!-- Generator: Adobe Illustrator 23.0.5, SVG Export Plug-In . SVG Version: 6.00 Build 0)  -->
<svg version="1.1" id="Capa_1" xmlns="http://www.w3.org/2000/svg" xmlns:xlink="http://www.w3.org/1999/xlink" x="0px" y="0px"
	 viewBox="0 0 100 70" style="enable-background:new 0 0 100 70;" xml:space="preserve">
<style type="text/css">
	.st0{fill:#65C2EC;}
	.st1{fill:#FFFFFF;}
</style>
<g id="out">
	<polygon class="st0" points="8.07,54.07 30.26,31.88 45.7,37.03 61.61,25.1 61.61,22.6 56.61,22.6 56.61,7.6 91.61,7.6 91.61,42.6 
		76.61,42.6 76.61,38.2 74.78,38.4 52.98,58.1 32.19,52.9 13.84,62.08 	"/>
</g>
<polygon id="in" class="st1" points="11.61,57.6 31.61,37.6 46.61,42.6 66.61,27.6 66.61,17.6 61.61,17.6 61.61,12.6 86.61,12.6 
	86.61,37.6 81.61,37.6 81.61,32.6 72.62,33.62 51.61,52.6 31.61,47.6 "/>
</svg>
