<?xml version="1.0" encoding="utf-8"?>
<!-- Generator: Adobe Illustrator 23.0.5, SVG Export Plug-In . SVG Version: 6.00 Build 0)  -->
<svg version="1.1" id="Capa_1" xmlns="http://www.w3.org/2000/svg" xmlns:xlink="http://www.w3.org/1999/xlink" x="0px" y="0px"
	 viewBox="0 0 100 70" style="enable-background:new 0 0 100 70;" xml:space="preserve">
<style type="text/css">
	.st2{fill:#212935;stroke:#212935;stroke-width:3.7;stroke-miterlimit:10;}
	.st1{fill:#CED1D2;}
</style>
<g id="out_1_">
	
		<rect x="-3.81" y="34.84" transform="matrix(-1.836970e-16 1 -1 -1.836970e-16 56.93 23.85)" class="st2" width="40.7" height="11.1"/>
	
		<rect x="14.69" y="42.24" transform="matrix(-1.836970e-16 1 -1 -1.836970e-16 75.43 20.15)" class="st2" width="25.9" height="11.1"/>
	
		<rect x="9.14" y="25.59" transform="matrix(-1.836970e-16 1 -1 -1.836970e-16 69.88 -7.6)" class="st2" width="59.2" height="11.1"/>
	
		<rect x="53.54" y="47.79" transform="matrix(-1.836970e-16 1 -1 -1.836970e-16 114.28 -7.6)" class="st2" width="14.8" height="11.1"/>
	
		<rect x="38.74" y="44.09" transform="matrix(-1.836970e-16 1 -1 -1.836970e-16 99.48 -0.2)" class="st2" width="22.2" height="11.1"/>
	
		<rect x="33.19" y="34.84" transform="matrix(-1.836970e-16 1 -1 -1.836970e-16 101.33 23.85)" class="st2" width="11.1" height="55.5"/>
	
		<rect x="51.69" y="12.64" transform="matrix(-1.836970e-16 1 -1 -1.836970e-16 90.23 -50.15)" class="st2" width="37" height="14.8"/>
	
		<rect x="62.79" y="1.54" transform="matrix(-1.836970e-16 1 -1 -1.836970e-16 90.23 -50.15)" class="st2" width="14.8" height="37"/>
</g>
<g id="in_1_">
	<rect x="14.69" y="23.74" class="st1" width="3.7" height="33.3"/>
	<rect x="25.79" y="38.54" class="st1" width="3.7" height="18.5"/>
	<rect x="36.89" y="5.24" class="st1" width="3.7" height="51.8"/>
	<rect x="59.09" y="49.64" class="st1" width="3.7" height="7.4"/>
	<rect x="47.99" y="42.24" class="st1" width="3.7" height="14.8"/>
	<rect x="14.69" y="60.74" class="st1" width="48.1" height="3.7"/>
	<rect x="66.49" y="5.24" class="st1" width="7.4" height="29.6"/>
	<rect x="66.49" y="5.24" transform="matrix(6.123234e-17 -1 1 6.123234e-17 50.15 90.23)" class="st1" width="7.4" height="29.6"/>
</g>
</svg>
