<svg xmlns="http://www.w3.org/2000/svg" x="0px" y="0px"
width="64" height="64"
viewBox="0 0 172 172"
style=" fill:#000000;"><g fill="none" fill-rule="nonzero" stroke="none" stroke-width="1" stroke-linecap="butt" stroke-linejoin="miter" stroke-miterlimit="10" stroke-dasharray="" stroke-dashoffset="0" font-family="none" font-weight="none" font-size="none" text-anchor="none" style="mix-blend-mode: normal"><path d="M0,172v-172h172v172z" fill="none"></path><g><path d="M139.75,56.4375c-0.80625,0 -1.6125,0.13437 -2.41875,0.13437c-6.71875,-21.90312 -27.14375,-37.75937 -51.33125,-37.75937c-24.1875,0 -44.6125,15.85625 -51.33125,37.75938c-0.80625,0 -1.6125,-0.13437 -2.41875,-0.13437c-8.86875,0 -16.125,7.25625 -16.125,16.125c0,8.86875 7.25625,16.125 16.125,16.125c0.80625,0 1.6125,-0.13437 2.41875,-0.13437c6.71875,21.90312 27.14375,37.75937 51.33125,37.75937c24.1875,0 44.6125,-15.85625 51.33125,-37.75937c0.80625,0.13437 1.6125,0.13437 2.41875,0.13437c8.86875,0 16.125,-7.25625 16.125,-16.125c0,-8.86875 -7.25625,-16.125 -16.125,-16.125z" fill="#ffffff"></path><path d="M86,131.6875c-9.675,0 -17.46875,-7.79375 -17.46875,-17.46875c0,-1.88125 0.26875,-3.62812 0.80625,-5.375c0.67188,-2.15 2.95625,-3.225 5.10625,-2.55313c2.15,0.67188 3.225,2.95625 2.55313,5.10625c-0.26875,0.80625 -0.40313,1.88125 -0.40313,2.82188c0,5.24063 4.16563,9.40625 9.40625,9.40625c5.24063,0 9.40625,-4.16562 9.40625,-9.40625c0,-5.24063 -4.16562,-9.40625 -9.40625,-9.40625c-2.28437,0 -4.03125,-1.74688 -4.03125,-4.03125c0,-2.28437 1.74688,-4.03125 4.03125,-4.03125c9.675,0 17.46875,7.79375 17.46875,17.46875c0,9.675 -7.79375,17.46875 -17.46875,17.46875zM65.84375,65.84375c-3.71066,0 -6.71875,3.00809 -6.71875,6.71875c0,3.71066 3.00809,6.71875 6.71875,6.71875c3.71066,0 6.71875,-3.00809 6.71875,-6.71875c0,-3.71066 -3.00809,-6.71875 -6.71875,-6.71875zM106.15625,65.84375c-3.71066,0 -6.71875,3.00809 -6.71875,6.71875c0,3.71066 3.00809,6.71875 6.71875,6.71875c3.71066,0 6.71875,-3.00809 6.71875,-6.71875c0,-3.71066 -3.00809,-6.71875 -6.71875,-6.71875z" fill="#65c2ec"></path><path d="M57.78125,122.28125c-0.67187,0 -1.47812,-0.13437 -2.15,-0.5375c-11.01875,-6.85312 -19.35,-17.06562 -23.78437,-29.025c-10.88438,-0.26875 -19.75312,-9.1375 -19.75312,-20.15625c0,-11.01875 8.86875,-19.8875 19.75313,-20.15625c5.10625,-13.70625 15.45313,-25.2625 28.75625,-31.7125c2.01563,-0.94062 4.43438,-0.13437 5.375,1.88125c0.94063,2.01563 0.13438,4.43438 -1.88125,5.375c-12.22812,5.9125 -21.63437,16.93125 -25.53125,29.83125c-0.5375,1.88125 -2.41875,3.09062 -4.43437,2.82187c-0.80625,-0.13437 -1.34375,-0.13437 -1.88125,-0.13437c-6.71875,0 -12.09375,5.375 -12.09375,12.09375c0,6.71875 5.375,12.09375 12.09375,12.09375c0.5375,0 1.075,0 1.74688,-0.13438c2.01563,-0.26875 3.89687,0.94063 4.43437,2.82188c3.49375,11.42188 11.15313,21.23125 21.36563,27.54688c1.88125,1.20938 2.41875,3.62812 1.34375,5.50937c-0.67187,1.20938 -2.01562,1.88125 -3.35937,1.88125zM114.21875,122.28125c-1.34375,0 -2.6875,-0.67187 -3.49375,-1.88125c-1.20938,-1.88125 -0.5375,-4.43437 1.34375,-5.50937c10.2125,-6.31562 17.87188,-16.125 21.36563,-27.54687c0.5375,-1.88125 2.41875,-3.09063 4.43437,-2.82188c0.67188,0.13438 1.20938,0.13438 1.74687,0.13438c6.71875,0 12.09375,-5.375 12.09375,-12.09375c0,-6.71875 -5.375,-12.09375 -12.09375,-12.09375c-0.5375,0 -1.075,0 -1.74687,0.13437c-2.01562,0.26875 -3.89687,-0.94062 -4.43437,-2.82187c-6.45,-20.9625 -25.53125,-34.9375 -47.43437,-34.9375c-6.9875,0 -17.46875,-4.70312 -17.46875,-17.46875c0,-2.28438 1.74688,-4.03125 4.03125,-4.03125c2.28438,0 4.03125,1.74687 4.03125,4.03125c0,8.86875 7.79375,9.40625 9.40625,9.40625c24.32188,0 45.82188,15.05 54.15313,37.625c10.88437,0.26875 19.75313,9.1375 19.75313,20.15625c0,11.01875 -8.86875,19.8875 -19.75313,20.15625c-4.43437,11.95938 -12.76562,22.17188 -23.78438,29.025c-0.67188,0.40313 -1.34375,0.5375 -2.15,0.5375z" fill="#65c2ec"></path><g><path d="M112.875,166.625v-9.54063c18.40938,-5.77812 34.53438,-17.46875 45.6875,-33.45937c2.6875,-3.89688 1.47813,-9.27188 -2.55312,-11.55625l-0.26875,-0.13437c-3.62813,-2.01562 -8.0625,-0.94063 -10.48125,2.41875c-13.4375,19.21562 -35.475,30.77187 -59.25938,30.77187c-23.78438,0 -45.82187,-11.55625 -59.25938,-30.6375c-2.41875,-3.35937 -6.85312,-4.43437 -10.48125,-2.41875l-0.26875,0.13437c-4.03125,2.28437 -5.24062,7.65937 -2.55312,11.42188c11.15313,15.99062 27.27813,27.54688 45.6875,33.45937v9.54063" fill="#ffffff"></path><path d="M112.875,170.65625c-2.28437,0 -4.03125,-1.74687 -4.03125,-4.03125v-9.54063c0,-1.74687 1.075,-3.35937 2.82187,-3.89687c17.60312,-5.50938 33.05625,-16.93125 43.5375,-31.84687c0.67188,-0.94063 0.94063,-2.01562 0.67188,-3.09063c-0.26875,-1.075 -0.94063,-2.01562 -1.88125,-2.55313l-0.26875,-0.13437c-1.74687,-0.94062 -4.03125,-0.40313 -5.24063,1.20938c-14.10937,20.29062 -37.49062,32.38437 -62.48437,32.38437c-24.99375,0 -48.375,-12.09375 -62.61875,-32.38437c-1.20937,-1.74688 -3.49375,-2.28438 -5.24063,-1.20938l-0.26875,0.13437c-0.94063,0.5375 -1.6125,1.47812 -1.88125,2.55313c-0.26875,1.075 0,2.28437 0.67188,3.09063c10.48125,15.05 26.06875,26.3375 43.5375,31.84687c1.6125,0.5375 2.82188,2.15 2.82188,3.89687v9.54063c0,2.28438 -1.74688,4.03125 -4.03125,4.03125c-2.28438,0 -4.03125,-1.74687 -4.03125,-4.03125v-6.58437c-18.14062,-6.45 -33.99688,-18.40938 -45.01562,-33.99688c-2.01562,-2.82188 -2.6875,-6.31563 -1.88125,-9.54063c0.80625,-3.225 2.82187,-6.18125 5.77812,-7.79375l0.26875,-0.13437c5.375,-2.95625 12.09375,-1.47812 15.72188,3.62812c12.9,18.14062 33.8625,28.89062 56.16875,28.89062c22.30625,0 43.26875,-10.75 56.03438,-28.89062c3.62812,-5.10625 10.34687,-6.71875 15.72187,-3.62812l0.26875,0.13437c2.95625,1.6125 5.10625,4.43437 5.77812,7.79375c0.80625,3.35938 0,6.85312 -1.88125,9.54062c-11.01875,15.5875 -26.875,27.68125 -45.01562,33.99688v6.58437c0,2.28438 -1.74688,4.03125 -4.03125,4.03125z" fill="#65c2ec"></path></g></g></g></svg>