<svg xmlns="http://www.w3.org/2000/svg" x="0px" y="0px"
width="100" height="100"
viewBox="0 0 172 172"
style=" fill:#000000;"><g fill="none" fill-rule="nonzero" stroke="none" stroke-width="1" stroke-linecap="butt" stroke-linejoin="miter" stroke-miterlimit="10" stroke-dasharray="" stroke-dashoffset="0" font-family="none" font-weight="none" font-size="none" text-anchor="none" style="mix-blend-mode: normal"><path d="M0,172v-172h172v172z" fill="none"></path><g fill="#65c2ec"><path d="M86.02352,18.92c-0.18812,-0.0025 -0.37537,0.02587 -0.5543,0.08398l-58.48,18.92c-0.709,0.23008 -1.18915,0.89062 -1.18922,1.63602v12.04c0.00009,0.55041 0.26356,1.06754 0.70879,1.39116c0.44522,0.32362 1.01842,0.41464 1.542,0.24486l57.94922,-18.74867l57.94922,18.74867c0.52357,0.16978 1.09677,0.07876 1.542,-0.24486c0.44522,-0.32362 0.7087,-0.84075 0.70879,-1.39116v-12.04c-0.00007,-0.7454 -0.48022,-1.40594 -1.18922,-1.63602l-58.48,-18.92c-0.16393,-0.05325 -0.33492,-0.08156 -0.50727,-0.08398zM86,22.44734l56.76,18.36234v8.42531l-56.22922,-18.19102c-0.34501,-0.11192 -0.71656,-0.11192 -1.06156,0l-56.22922,18.19102v-8.42531zM42.14,61.92c-0.33991,-0.00008 -0.64798,0.20004 -0.78609,0.51062l-3.59453,8.08937h-3.35937c-3.77941,0 -6.88,3.10059 -6.88,6.88v63.64c0,3.77941 3.10059,6.88 6.88,6.88h42.00898c1.53513,2.85016 4.87193,5.16 9.59102,5.16c4.71908,0 8.05588,-2.30984 9.59102,-5.16h43.72898c3.77941,0 6.88,-3.10059 6.88,-6.88v-63.64c0,-3.77941 -3.10059,-6.88 -6.88,-6.88h-3.35937l-3.59453,-8.08937c-0.13811,-0.31059 -0.44618,-0.5107 -0.78609,-0.51062c-16.41544,0 -27.68091,2.16038 -34.86359,4.33695c-6.45907,1.95729 -9.27389,3.75618 -9.85641,4.14211c-0.58252,-0.38593 -3.39734,-2.18482 -9.85641,-4.14211c-7.18268,-2.17657 -18.44815,-4.33695 -34.86359,-4.33695zM43,63.68031c15.73931,0.08244 26.63896,2.14169 33.50641,4.22273c5.87172,1.77931 8.69176,3.43348 9.49359,3.94727v49.40969c-0.00439,0.31015 0.15856,0.59863 0.42645,0.75498c0.26789,0.15635 0.59921,0.15635 0.8671,0c0.26789,-0.15635 0.43084,-0.44484 0.42645,-0.75498v-49.40969c0.80183,-0.51378 3.62187,-2.16796 9.49359,-3.94727c6.86744,-2.08105 17.76709,-4.1403 33.50641,-4.22273v67.05648c-18.65635,0.09007 -30.55718,2.96971 -37.27227,5.40859c-0.30253,0.09388 -0.52898,0.34645 -0.58939,0.6574c-0.06041,0.31095 0.05498,0.62994 0.30035,0.83027c0.24537,0.20033 0.581,0.24958 0.87357,0.12818c6.56663,-2.38496 18.40447,-5.25959 37.14461,-5.30445l5.49258,6.8632h-44.51172c-0.09232,-0.01517 -0.1865,-0.01517 -0.27883,0h-4.77367c-0.60376,-0.39893 -3.67165,-2.31456 -10.10164,-4.26305c-7.05216,-2.13702 -18.06986,-4.24712 -34.00359,-4.32352zM41.28,66.83141v64.44625l-5.16,6.45v-59.28625zM132.44,66.83141l5.16,11.61v59.28625l-5.16,-6.45zM50.69633,70.52c-0.47022,0.00665 -0.84792,0.38973 -0.84792,0.86c0,0.47027 0.3777,0.85335 0.84792,0.86c5.20182,0.26163 9.71916,0.76594 13.6693,1.39414c0.4694,0.07421 0.91008,-0.24615 0.9843,-0.71555c0.07421,-0.4694 -0.24615,-0.91008 -0.71555,-0.9843c-4.01003,-0.63772 -8.58804,-1.14961 -13.8507,-1.4143c-0.0291,-0.00148 -0.05825,-0.00148 -0.08735,0zM122.93633,70.52c-14.29076,0.71782 -23.76673,3.20023 -29.49867,5.34141c-0.44528,0.16698 -0.67089,0.66331 -0.50391,1.10859c0.16698,0.44528 0.66331,0.67089 1.10859,0.50391c5.55814,-2.07626 14.85081,-4.52413 28.98133,-5.23391c0.30727,-0.01557 0.58289,-0.1939 0.72301,-0.4678c0.14013,-0.2739 0.12348,-0.60175 -0.04367,-0.86005c-0.16716,-0.25829 -0.45942,-0.40778 -0.76668,-0.39215zM67.93328,72.52219c-0.44645,-0.00291 -0.8209,0.33627 -0.86203,0.78083c-0.04113,0.44456 0.26473,0.84668 0.70414,0.92573c1.85202,0.36016 3.56554,0.74305 5.10961,1.13883c0.46012,0.11874 0.92938,-0.158 1.04812,-0.61812c0.11874,-0.46012 -0.158,-0.92938 -0.61813,-1.04812c-1.58289,-0.40574 -3.33001,-0.79331 -5.21039,-1.15898c-0.05629,-0.01244 -0.11369,-0.0192 -0.17133,-0.02016zM34.4,73.96h1.83086l-1.75695,3.95063c-0.04881,0.11001 -0.07399,0.22903 -0.07391,0.34938v61.92c-0.00002,0.00336 -0.00002,0.00672 0,0.01008c-0.00018,0.01008 -0.00018,0.02016 0,0.03024c0.00069,0.0157 0.00181,0.03139 0.00336,0.04703c0.00104,0.00673 0.00216,0.01345 0.00336,0.02016c0.00247,0.02252 0.00584,0.04493 0.01008,0.06719c0.0039,0.01806 0.00838,0.03598 0.01344,0.05375c0.00308,0.01239 0.00645,0.02471 0.01008,0.03695c0.00428,0.01016 0.00876,0.02024 0.01344,0.03023c0.00415,0.01355 0.00863,0.02699 0.01344,0.04031c0.00327,0.00676 0.00663,0.01348 0.01008,0.02016c0.01012,0.02401 0.02133,0.04755 0.03359,0.07055c0.00112,0.00112 0.00224,0.00224 0.00336,0.00336c0.01156,0.01952 0.02389,0.03857 0.03695,0.05711c0.0033,0.00564 0.00665,0.01124 0.01008,0.0168c0.0128,0.0173 0.02625,0.0341 0.04031,0.05039c0.00441,0.00565 0.00889,0.01125 0.01344,0.0168c0.01506,0.01628 0.03075,0.03197 0.04703,0.04703c0.00876,0.00916 0.01772,0.01812 0.02687,0.02687c0.0338,0.02848 0.06973,0.05431 0.1075,0.07727c0.02177,0.01445 0.04419,0.0279 0.06719,0.04031c0.00558,0.0023 0.01117,0.00454 0.0168,0.00672c0.00667,0.00345 0.01339,0.00681 0.02016,0.01008c0.02195,0.01103 0.04437,0.02112 0.06719,0.03023c0.00223,0.00113 0.00447,0.00225 0.00672,0.00336c0.046,0.01515 0.0932,0.02639 0.1411,0.0336c0.0067,0.0012 0.01342,0.00232 0.02015,0.00336c0.02119,0.00303 0.04248,0.00527 0.06383,0.00672c0.02011,0.00183 0.04028,0.00295 0.06047,0.00336h43.96078c0.48454,2.96183 3.38075,5.16 6.77922,5.16c3.39847,0 6.29468,-2.19817 6.77922,-5.16h45.68078c0.00112,0 0.00224,0 0.00336,0c0.02915,0.00036 0.0583,-0.00076 0.08734,-0.00336c0.0282,-0.00309 0.05623,-0.00758 0.08398,-0.01344c0.02837,-0.00641 0.05641,-0.01426 0.08399,-0.02352c0.01697,-0.00508 0.03377,-0.01068 0.05039,-0.0168c0.01014,-0.00317 0.02022,-0.00653 0.03023,-0.01008c0.01248,-0.00642 0.0248,-0.01314 0.03695,-0.02016c0.01361,-0.00637 0.02705,-0.01309 0.04031,-0.02016c0.04885,-0.02682 0.09498,-0.05832 0.13773,-0.09406c0.00112,-0.00112 0.00224,-0.00224 0.00336,-0.00336c0.04306,-0.03636 0.08244,-0.07687 0.11758,-0.12094c0,-0.00112 0,-0.00224 0,-0.00336c0.03476,-0.04397 0.06514,-0.09122 0.0907,-0.1411c0.00112,-0.00112 0.00224,-0.00224 0.00336,-0.00336c0.01235,-0.02409 0.02356,-0.04876 0.03359,-0.0739c0,-0.00112 0,-0.00224 0,-0.00336c0.03785,-0.09864 0.05721,-0.20341 0.05711,-0.30906v-61.92c0.00008,-0.12035 -0.0251,-0.23937 -0.07391,-0.34938l-1.75695,-3.95063h1.83086c1.92067,0 3.44,1.51933 3.44,3.44v63.64c0,1.92067 -1.51933,3.44 -3.44,3.44h-44.72c-0.74058,-0.00039 -1.39828,0.47327 -1.63266,1.17578c-0.59044,1.77131 -2.84139,3.98422 -6.96734,3.98422c-4.12596,0 -6.37691,-2.21291 -6.96734,-3.98422c-0.23437,-0.70252 -0.89208,-1.17617 -1.63266,-1.17578h-43c-1.92067,0 -3.44,-1.51933 -3.44,-3.44v-63.64c0,-1.92067 1.51933,-3.44 3.44,-3.44zM76.54,74.64195c-0.43108,-0.00687 -0.80064,0.30648 -0.86435,0.73289c-0.06371,0.4264 0.19813,0.83409 0.6124,0.95352c0.59168,0.18232 1.1768,0.36094 1.69648,0.5375c0.29622,0.12172 0.63554,0.06877 0.8806,-0.13741c0.24506,-0.20618 0.35527,-0.53144 0.28602,-0.84412c-0.06925,-0.31268 -0.30649,-0.56099 -0.61569,-0.64441c-0.5536,-0.18808 -1.15184,-0.37198 -1.74352,-0.5543c-0.08134,-0.02703 -0.16626,-0.04175 -0.25195,-0.04367zM50.69633,79.12c-0.47022,0.00665 -0.84792,0.38973 -0.84792,0.86c0,0.47027 0.3777,0.85335 0.84792,0.86c12.77246,0.64136 21.60005,2.70546 27.2882,4.62922c0.29266,0.10454 0.61894,0.04308 0.85351,-0.16077c0.23456,-0.20385 0.34092,-0.51838 0.27821,-0.82275c-0.06271,-0.30437 -0.28474,-0.55124 -0.58078,-0.64577c-5.84617,-1.9772 -14.83434,-4.07128 -27.7518,-4.71992c-0.0291,-0.00148 -0.05825,-0.00148 -0.08735,0zM122.93633,79.12c-2.45194,0.12286 -4.74854,0.30103 -6.92031,0.51734c-0.47278,0.04677 -0.81826,0.46773 -0.77191,0.94055c0.04635,0.47282 0.46702,0.81867 0.93988,0.77273c2.14542,-0.21369 4.41714,-0.38924 6.83969,-0.51062c0.30727,-0.01557 0.58289,-0.1939 0.72301,-0.4678c0.14013,-0.2739 0.12348,-0.60175 -0.04367,-0.86005c-0.16716,-0.25829 -0.45942,-0.40778 -0.76668,-0.39215zM112.69695,80.02031c-0.04835,-0.00071 -0.09667,0.00266 -0.14445,0.01008c-1.84102,0.23554 -3.57459,0.49981 -5.20031,0.78609c-0.31291,0.04156 -0.5779,0.25119 -0.69038,0.54612c-0.11248,0.29493 -0.05436,0.62778 0.15141,0.86715c0.20577,0.23937 0.52612,0.34679 0.8346,0.27985c1.59756,-0.28132 3.30399,-0.54036 5.11969,-0.77266c0.45669,-0.04135 0.80063,-0.43372 0.7818,-0.8919c-0.01883,-0.45817 -0.3938,-0.821 -0.85235,-0.82474zM102.31313,81.84781c-0.00785,0.00101 -0.01569,0.00213 -0.02352,0.00336c-0.04873,0.00372 -0.09706,0.01159 -0.14445,0.02351c-3.5364,0.82678 -6.42344,1.73216 -8.7075,2.58672c-0.44528,0.16698 -0.67089,0.66331 -0.50391,1.10859c0.16698,0.44528 0.66331,0.67089 1.10859,0.50391c2.21202,-0.8276 5.02506,-1.71223 8.4925,-2.52289c0.44891,-0.08374 0.75411,-0.5037 0.69517,-0.95653c-0.05895,-0.45283 -0.4615,-0.78065 -0.91688,-0.74668zM50.69633,87.72c-0.47022,0.00665 -0.84792,0.38973 -0.84792,0.86c0,0.47027 0.3777,0.85335 0.84792,0.86c3.07789,0.15561 5.91446,0.39467 8.54625,0.69203c0.47218,0.0538 0.89858,-0.28536 0.95238,-0.75754c0.0538,-0.47218 -0.28536,-0.89858 -0.75754,-0.95238c-2.66581,-0.3012 -5.53964,-0.54467 -8.65375,-0.70211c-0.0291,-0.00148 -0.05825,-0.00148 -0.08735,0zM122.93633,87.72c-14.29076,0.71782 -23.76673,3.20023 -29.49867,5.34141c-0.44528,0.16698 -0.67089,0.66331 -0.50391,1.10859c0.16698,0.44528 0.66331,0.67089 1.10859,0.50391c5.55814,-2.07626 14.85081,-4.52413 28.98133,-5.23391c0.30727,-0.01557 0.58289,-0.1939 0.72301,-0.4678c0.14013,-0.2739 0.12348,-0.60175 -0.04367,-0.86005c-0.16716,-0.25829 -0.45942,-0.40778 -0.76668,-0.39215zM64.46305,89.12086c-0.45188,0.00562 -0.82234,0.36 -0.84799,0.81119c-0.02566,0.45119 0.30224,0.84528 0.75057,0.90209c5.74468,0.91307 10.25062,2.09593 13.61891,3.23508c0.29266,0.10454 0.61894,0.04308 0.85351,-0.16077c0.23456,-0.20385 0.34092,-0.51838 0.27821,-0.82275c-0.06271,-0.30437 -0.28474,-0.55124 -0.58078,-0.64577c-3.46699,-1.17253 -8.06673,-2.3783 -13.90109,-3.30562c-0.05652,-0.01019 -0.11391,-0.01469 -0.17133,-0.01344zM50.69633,96.32c-0.47022,0.00665 -0.84792,0.38973 -0.84792,0.86c0,0.47027 0.3777,0.85335 0.84792,0.86c12.77246,0.64136 21.60005,2.70546 27.2882,4.62922c0.29266,0.10454 0.61894,0.04308 0.85351,-0.16077c0.23456,-0.20385 0.34092,-0.51838 0.27821,-0.82275c-0.06271,-0.30437 -0.28474,-0.55124 -0.58078,-0.64577c-5.84617,-1.9772 -14.83434,-4.07128 -27.7518,-4.71992c-0.0291,-0.00148 -0.05825,-0.00148 -0.08735,0zM122.93633,96.32c-7.69717,0.38745 -13.98343,1.28681 -19.05438,2.36836c-0.46476,0.09833 -0.76181,0.55481 -0.66348,1.01957c0.09833,0.46476 0.55481,0.76181 1.01957,0.66348c4.9773,-1.06157 11.17479,-1.9483 18.78562,-2.33141c0.30727,-0.01557 0.58289,-0.1939 0.72301,-0.4678c0.14013,-0.2739 0.12348,-0.60175 -0.04367,-0.86005c-0.16716,-0.25829 -0.45942,-0.40778 -0.76668,-0.39215zM97.15313,100.43859c-0.07649,0.00336 -0.15218,0.01692 -0.22508,0.04031c-1.28679,0.39701 -2.45013,0.79671 -3.48703,1.1825c-0.29427,0.10224 -0.51025,0.35562 -0.56461,0.66236c-0.05436,0.30675 0.0614,0.61891 0.30262,0.81605c0.24122,0.19714 0.57018,0.24843 0.85996,0.13409c1.00645,-0.37446 2.1376,-0.76495 3.39297,-1.15227c0.41401,-0.12476 0.67104,-0.5375 0.60036,-0.96408c-0.07067,-0.42659 -0.44707,-0.73439 -0.87919,-0.71897zM50.69633,104.92c-0.47022,0.00665 -0.84792,0.38973 -0.84792,0.86c0,0.47027 0.3777,0.85335 0.84792,0.86c12.77246,0.64136 21.60005,2.70546 27.2882,4.62922c0.29266,0.10454 0.61894,0.04308 0.85351,-0.16077c0.23456,-0.20385 0.34092,-0.51838 0.27821,-0.82275c-0.06271,-0.30437 -0.28474,-0.55124 -0.58078,-0.64577c-5.84617,-1.9772 -14.83434,-4.07128 -27.7518,-4.71992c-0.0291,-0.00148 -0.05825,-0.00148 -0.08735,0zM122.93633,104.92c-14.29076,0.71782 -23.76673,3.20023 -29.49867,5.34141c-0.44528,0.16698 -0.67089,0.66331 -0.50391,1.10859c0.16698,0.44528 0.66331,0.67089 1.10859,0.50391c5.55814,-2.07626 14.85081,-4.52413 28.98133,-5.23391c0.30727,-0.01557 0.58289,-0.1939 0.72301,-0.4678c0.14013,-0.2739 0.12348,-0.60175 -0.04367,-0.86005c-0.16716,-0.25829 -0.45942,-0.40778 -0.76668,-0.39215zM50.69633,113.52c-0.47022,0.00665 -0.84792,0.38973 -0.84792,0.86c0,0.47027 0.3777,0.85335 0.84792,0.86c6.77222,0.34032 12.40315,1.08489 17.07906,1.99211c0.46662,0.09091 0.91858,-0.21366 1.00949,-0.68027c0.09091,-0.46662 -0.21366,-0.91858 -0.68027,-1.00949c-4.75657,-0.92286 -10.47076,-1.6781 -17.32094,-2.02234c-0.0291,-0.00148 -0.05825,-0.00148 -0.08735,0zM122.93633,113.52c-14.29076,0.71782 -23.76673,3.20023 -29.49867,5.34141c-0.44528,0.16698 -0.67089,0.66331 -0.50391,1.10859c0.16698,0.44528 0.66331,0.67089 1.10859,0.50391c5.55814,-2.07626 14.85081,-4.52413 28.98133,-5.23391c0.30727,-0.01557 0.58289,-0.1939 0.72301,-0.4678c0.14013,-0.2739 0.12348,-0.60175 -0.04367,-0.86005c-0.16716,-0.25829 -0.45942,-0.40778 -0.76668,-0.39215zM74.79984,117.14141c-0.42807,0.00726 -0.78563,0.32826 -0.83884,0.75307c-0.05321,0.42482 0.21414,0.82409 0.6272,0.93669c1.22968,0.3467 2.3855,0.69605 3.39633,1.03805c0.29266,0.10454 0.61894,0.04308 0.85351,-0.16077c0.23456,-0.20385 0.34092,-0.51838 0.27821,-0.82275c-0.06271,-0.30437 -0.28474,-0.55124 -0.58078,-0.64577c-1.05317,-0.35632 -2.23655,-0.7133 -3.48367,-1.06492c-0.08186,-0.02361 -0.16677,-0.03494 -0.25195,-0.03359zM50.69633,122.12c-0.47022,0.00665 -0.84792,0.38973 -0.84792,0.86c0,0.47027 0.3777,0.85335 0.84792,0.86c12.77246,0.64136 21.60005,2.70546 27.2882,4.62922c0.29266,0.10454 0.61894,0.04308 0.85351,-0.16077c0.23456,-0.20385 0.34092,-0.51838 0.27821,-0.82275c-0.06271,-0.30437 -0.28474,-0.55124 -0.58078,-0.64577c-5.84617,-1.9772 -14.83434,-4.07128 -27.7518,-4.71992c-0.0291,-0.00148 -0.05825,-0.00148 -0.08735,0zM122.93633,122.12c-14.29076,0.71782 -23.76673,3.20023 -29.49867,5.34141c-0.44528,0.16698 -0.67089,0.66331 -0.50391,1.10859c0.16698,0.44528 0.66331,0.67089 1.10859,0.50391c5.55814,-2.07626 14.85081,-4.52413 28.98133,-5.23391c0.30727,-0.01557 0.58289,-0.1939 0.72301,-0.4678c0.14013,-0.2739 0.12348,-0.60175 -0.04367,-0.86005c-0.16716,-0.25829 -0.45942,-0.40778 -0.76668,-0.39215zM86.84656,125.54656c-0.22809,0.00356 -0.44542,0.09758 -0.60418,0.26138c-0.15876,0.1638 -0.24595,0.38397 -0.24238,0.61205v3.44c-0.00439,0.31015 0.15856,0.59863 0.42645,0.75498c0.26789,0.15635 0.59921,0.15635 0.8671,0c0.26789,-0.15635 0.43084,-0.44484 0.42645,-0.75498v-3.44c0.00364,-0.23275 -0.08721,-0.45703 -0.25181,-0.62163c-0.1646,-0.1646 -0.38888,-0.25545 -0.62163,-0.25181zM86.84656,132.42656c-0.22809,0.00356 -0.44542,0.09758 -0.60418,0.26138c-0.15876,0.1638 -0.24595,0.38397 -0.24238,0.61205v1.72c-0.00439,0.31015 0.15856,0.59863 0.42645,0.75498c0.26789,0.15635 0.59921,0.15635 0.8671,0c0.26789,-0.15635 0.43084,-0.44484 0.42645,-0.75498v-1.72c0.00364,-0.23275 -0.08721,-0.45703 -0.25181,-0.62163c-0.1646,-0.1646 -0.38888,-0.25545 -0.62163,-0.25181zM42.53305,132.46687c16.01237,0.04014 27.03273,2.13295 33.97336,4.23617c3.17797,0.96302 5.264,1.86776 6.85313,2.61695h-3.22164c-0.05652,-0.01019 -0.11391,-0.01469 -0.17133,-0.01344c-0.04283,0.00129 -0.0855,0.00578 -0.12766,0.01344h-42.78836zM80.94414,141.04h5.91586h4.19586c-0.47365,1.92107 -2.50116,3.44 -5.05586,3.44c-2.5547,0 -4.58221,-1.51893 -5.05586,-3.44z"></path></g></g></svg>