<svg xmlns="http://www.w3.org/2000/svg" x="0px" y="0px"
width="50" height="50"
viewBox="0 0 226 226"
style=" fill:#000000;"><g fill="none" fill-rule="nonzero" stroke="none" stroke-width="1" stroke-linecap="butt" stroke-linejoin="miter" stroke-miterlimit="10" stroke-dasharray="" stroke-dashoffset="0" font-family="none" font-weight="none" font-size="none" text-anchor="none" style="mix-blend-mode: normal"><path d="M0,226v-226h226v226z" fill="none"></path><g><path d="M85.5523,217.525c-1.2091,0 -2.3956,-0.25425 -3.5256,-0.7571c-4.3618,-1.93795 -6.3393,-7.07945 -4.3957,-11.45255l20.4191,-51.4376l-4.8251,0.16385v-21.2666h19.775c2.9493,0 5.6726,1.47465 7.27155,3.9437c1.61025,2.4747 1.8532,5.56525 0.6554,8.25465l-27.4703,67.47795c-1.36165,3.051 -4.48045,5.0737 -7.90435,5.0737z" fill="#dff0fe"></path><path d="M113,135.6c1.99445,0 3.82505,0.9944 4.9042,2.6555c1.0848,1.6724 1.24865,3.7516 0.3729,5.73475l-27.3686,67.2237c-0.94355,2.11875 -3.04535,3.48605 -5.36185,3.48605c-0.8136,0 -1.61025,-0.1695 -2.36735,-0.5085c-2.9493,-1.3108 -4.2827,-4.7799 -2.8815,-7.9326l18.78625,-47.3244l3.18095,-8.01735l-6.215,0.2034v-15.52055h16.95M113,129.95h-22.6v27.007l3.42955,-0.113l-18.78625,47.3244c-2.5764,5.8082 0.03955,12.60515 5.8421,15.18155c1.51985,0.678 3.1075,1.00005 4.66125,1.00005c4.41265,0 8.6106,-2.54815 10.5203,-6.83085l27.44205,-67.39885c1.582,-3.5595 1.24865,-7.6727 -0.8701,-10.9384c-2.1131,-3.2657 -5.74605,-5.2319 -9.6389,-5.2319z" fill="#65c2ec"></path><path d="M107.35,8.475c-10.92143,0 -19.775,8.85357 -19.775,19.775c0,10.92143 8.85357,19.775 19.775,19.775c10.92143,0 19.775,-8.85357 19.775,-19.775c0,-10.92143 -8.85357,-19.775 -19.775,-19.775z" fill="#dff0fe"></path><path d="M107.35,11.3c9.3451,0 16.95,7.6049 16.95,16.95c0,9.3451 -7.6049,16.95 -16.95,16.95c-9.3451,0 -16.95,-7.6049 -16.95,-16.95c0,-9.3451 7.6049,-16.95 16.95,-16.95M107.35,5.65c-12.48085,0 -22.6,10.1248 -22.6,22.6c0,12.4752 10.11915,22.6 22.6,22.6c12.48085,0 22.6,-10.1248 22.6,-22.6c0,-12.4752 -10.11915,-22.6 -22.6,-22.6z" fill="#65c2ec"></path><path d="M113,76.275c-4.67255,0 -8.475,-3.80245 -8.475,-8.475c0,-4.67255 3.80245,-8.475 8.475,-8.475h73.45c4.67255,0 8.475,3.80245 8.475,8.475c0,4.67255 -3.80245,8.475 -8.475,8.475z" fill="#dff0fe"></path><path d="M186.45,62.15c3.11315,0 5.65,2.53685 5.65,5.65c0,3.11315 -2.53685,5.65 -5.65,5.65h-73.45c-3.11315,0 -5.65,-2.53685 -5.65,-5.65c0,-3.11315 2.53685,-5.65 5.65,-5.65h73.45M186.45,56.5h-73.45c-6.2376,0 -11.3,5.0624 -11.3,11.3c0,6.2376 5.0624,11.3 11.3,11.3h73.45c6.2376,0 11.3,-5.0624 11.3,-11.3c0,-6.2376 -5.0624,-11.3 -11.3,-11.3z" fill="#65c2ec"></path><g><path d="M56.76555,155.375c-3.0284,0 -5.18105,-0.23165 -7.88175,-1.46335c-10.4073,-4.7347 -15.02335,-17.05735 -10.2943,-27.46465l35.6854,-54.5112c3.2544,-7.0851 9.52025,-11.55425 16.95565,-12.3396c0.97745,-0.19775 1.54245,-0.2712 2.0566,-0.2712h31.67955l-48.9855,82.12275c-3.7855,8.3168 -11.6277,13.92725 -19.21565,13.92725z" fill="#dff0fe"></path><path d="M120.00035,62.15l-46.43735,77.85135l-0.16385,0.2712l-0.12995,0.28815c-3.1527,6.94385 -10.09655,11.9893 -16.50365,11.9893c-2.6894,0 -4.46915,-0.18645 -6.7122,-1.2091c-8.8705,-4.0341 -12.8707,-14.4414 -9.05695,-23.3571l35.64585,-54.50555l0.2373,-0.3616l0.1808,-0.3955c2.62725,-5.7856 8.0343,-9.64455 14.46965,-10.3169l0.33335,-0.0339l0.3277,-0.07345c0.43505,-0.09605 0.79665,-0.1469 1.10175,-0.1469h26.70755M129.95,56.5h-36.6572c-0.8136,0 -1.59895,0.113 -2.35605,0.28815c-8.03995,0.84185 -15.44145,5.71215 -19.02355,13.59955l-35.89445,54.88975c-5.38445,11.8424 -0.1469,25.81485 11.70115,31.20495c3.164,1.4464 5.77995,1.7176 9.04565,1.7176c8.9609,0 17.7071,-6.61615 21.6508,-15.30585l51.53365,-86.39415z" fill="#65c2ec"></path></g><g><path d="M102.5023,217.525c-1.2091,0 -2.3956,-0.25425 -3.5256,-0.7571c-4.3618,-1.93795 -6.3393,-7.07945 -4.3957,-11.45255l20.4078,-49.94035h-58.4888c-19.549,0 -19.775,-18.96705 -19.775,-19.775c0,-4.0793 0.8927,-6.6105 1.62155,-8.1925l91.4396,5.36185c3.1188,0.00565 5.83645,1.4803 7.4354,3.94935c1.61025,2.4747 1.8532,5.56525 0.6554,8.25465l-27.4703,67.47795c-1.36165,3.051 -4.48045,5.0737 -7.90435,5.0737z" fill="#dff0fe"></path><path d="M40.24495,130.3455l89.37735,5.2432l0.16385,0.0113h0.16385c1.99445,0 3.82505,0.9944 4.9042,2.6555c1.0848,1.6724 1.24865,3.75725 0.3729,5.73475l-27.3686,67.2237c-0.94355,2.11875 -3.04535,3.48605 -5.36185,3.48605c-0.8136,0 -1.61025,-0.1695 -2.36735,-0.5085c-2.9493,-1.3108 -4.2827,-4.7799 -2.9041,-7.88175l18.78625,-45.97405l3.18095,-7.7857h-8.41285h-54.27955c-16.4754,0 -16.95,-15.21545 -16.95,-16.95c0,-2.2826 0.3051,-3.97195 0.69495,-5.2545M36.6346,124.47515c-0.52545,1.23735 -2.7346,4.41265 -2.7346,11.12485c0,6.35625 3.63295,22.6 22.6,22.6h54.27955l-18.78625,45.97405c-2.5764,5.8082 0.03955,12.60515 5.8421,15.18155c1.51985,0.67235 3.1075,0.9944 4.66125,0.9944c4.41265,0 8.6106,-2.54815 10.5203,-6.83085l27.44205,-67.39885c1.582,-3.5595 1.24865,-7.6727 -0.8701,-10.9384c-2.1131,-3.2657 -5.74605,-5.2319 -9.6389,-5.2319l-93.3154,-5.47485z" fill="#65c2ec"></path></g><g><path d="M56.5,155.375c-19.549,0 -19.775,-18.96705 -19.775,-19.775c0,-4.48045 0.7797,-6.81955 1.47465,-8.2038l66.32535,3.89285v24.08595z" fill="#98ccfd"></path><path d="M40.09805,130.33985l61.60195,3.61035v18.5998h-45.2c-16.4754,0 -16.95,-15.21545 -16.95,-16.95c0,-2.43515 0.2373,-4.0906 0.54805,-5.26015M36.6346,124.47515c-0.791,1.32775 -2.7346,3.7968 -2.7346,11.12485c0,6.35625 3.63295,22.6 22.6,22.6h50.85v-29.57775l-70.7154,-4.1471z" fill="#65c2ec"></path></g></g></g></svg>