<svg xmlns="http://www.w3.org/2000/svg" x="0px" y="0px"
width="40" height="40"
viewBox="0 0 172 172"
style=" fill:#000000;"><g fill="none" fill-rule="nonzero" stroke="none" stroke-width="1" stroke-linecap="none" stroke-linejoin="miter" stroke-miterlimit="10" stroke-dasharray="" stroke-dashoffset="0" font-family="none" font-weight="none" font-size="none" text-anchor="none" style="mix-blend-mode: normal"><path d="M0,172v-172h172v172z" fill="none" stroke="none" stroke-linecap="butt"></path><g><path d="M82.2031,135.0587l8.7204,-18.9673l52.3138,-104.3911c2.3521,-4.6956 8.0668,-6.5962 12.7624,-4.2398v0c4.6956,2.3521 6.5962,8.0668 4.2398,12.7624l-1.6856,3.3626" fill="none" stroke="#65c2ec" stroke-linecap="round"></path><path d="M47.9063,165.55c-3.3927,0 -6.7639,-0.5332 -10.0147,-1.5867c-17.4537,-5.6502 -26.9309,-24.8325 -21.1302,-42.7549l3.5647,-11.008c0.4472,-1.3846 3.4056,-3.0014 10.2555,-3.0014c6.8198,0 15.4327,1.5738 24.2563,4.429c19.3242,6.2565 29.9624,15.4757 28.7971,19.0705l-3.5647,11.0037c-4.6182,14.2631 -17.544,23.8478 -32.164,23.8478z" fill="#dff0fe" stroke="none" stroke-linecap="butt"></path><path d="M30.5859,109.349c6.6005,0 14.9769,1.5351 23.5898,4.3215c19.1264,6.192 27.3437,14.3018 27.4168,16.3615l-3.5647,11.008c-4.3301,13.3773 -16.4346,22.36 -30.1215,22.36c-3.1648,0 -6.3124,-0.4988 -9.3482,-1.4835c-16.3271,-5.2847 -25.1851,-23.2544 -19.7456,-40.0502l2.0554,-6.3468l1.4534,-4.5451c0.3139,-0.4214 2.5198,-1.6254 8.2646,-1.6254M30.5859,105.049c-6.708,0 -11.3348,1.4964 -12.3023,4.4892c-0.387,1.1954 -2.537,7.8389 -3.5647,11.0037c-6.1791,19.0834 3.9001,39.4396 22.5105,45.4682c3.5389,1.1438 7.1337,1.6899 10.6769,1.6899c15.0801,0 29.2099,-9.8814 34.2108,-25.3356c1.1825,-3.6507 3.2809,-10.1394 3.5647,-11.0037c1.9436,-6.0028 -11.5713,-15.7509 -30.1817,-21.7752c-9.331,-3.0229 -18.1718,-4.5365 -24.9142,-4.5365z" fill="#65c2ec" stroke="none" stroke-linecap="butt"></path><g stroke="none" stroke-linecap="butt"><path d="M68.757,136.9851c-6.3124,0 -13.4805,-1.2427 -20.7346,-3.5905c-8.7333,-2.8251 -16.4518,-6.8972 -21.7322,-11.4724c-4.73,-4.0979 -6.9015,-8.1098 -5.9641,-11.0037c1.1137,-3.44 6.8155,-5.5728 14.8866,-5.5728c6.3124,0 13.4762,1.2384 20.7303,3.5862c8.7333,2.8251 16.4475,6.9015 21.7279,11.4767c4.73,4.0979 6.9015,8.1098 5.9641,11.0037c-1.1137,3.44 -6.8112,5.5728 -14.878,5.5728z" fill="#b6dcfe"></path><path d="M35.2127,107.5v0c6.0888,0 13.029,1.204 20.0681,3.483c17.7977,5.762 27.6232,15.7165 26.3117,19.7714c-0.6364,1.9651 -4.9235,4.0807 -12.8398,4.0807c-6.0888,0 -13.029,-1.204 -20.0681,-3.483c-8.4667,-2.7391 -15.9186,-6.665 -20.984,-11.0553c-4.6956,-4.0678 -5.805,-7.2369 -5.3277,-8.7161c0.6364,-1.9651 4.9235,-4.0807 12.8398,-4.0807M35.2084,103.2c-8.901,0 -15.4327,2.4295 -16.9291,7.0563c-2.5542,7.8862 10.4662,19.1608 29.0766,25.1851c7.6884,2.4897 15.1274,3.6937 21.3925,3.6937c8.901,0 15.4327,-2.4295 16.9291,-7.0563c2.5542,-7.8819 -10.4662,-19.1608 -29.0766,-25.1851c-7.6884,-2.4897 -15.1274,-3.6937 -21.3925,-3.6937z" fill="#65c2ec"></path></g></g></g></svg>