<svg xmlns="http://www.w3.org/2000/svg" x="0px" y="0px"
width="40" height="40"
viewBox="0 0 172 172"
style=" fill:#000000;"><g fill="none" fill-rule="nonzero" stroke="none" stroke-width="1" stroke-linecap="butt" stroke-linejoin="miter" stroke-miterlimit="10" stroke-dasharray="" stroke-dashoffset="0" font-family="none" font-weight="none" font-size="none" text-anchor="none" style="mix-blend-mode: normal"><path d="M0,172v-172h172v172z" fill="none"></path><g><path d="M74.175,70.95h-22.575c-5.9297,0 -10.75,-4.8246 -10.75,-10.75v-43c0,-5.9254 4.8203,-10.75 10.75,-10.75h68.8c5.9297,0 10.75,4.8246 10.75,10.75v43c0,5.9254 -4.8203,10.75 -10.75,10.75h-22.575l-11.825,15.7681z" fill="#65c2ec"></path><path d="M120.4,8.6c4.7429,0 8.6,3.8571 8.6,8.6v43c0,4.7429 -3.8571,8.6 -8.6,8.6h-21.5h-2.15l-1.29,1.72l-9.46,12.6119l-9.46,-12.6119l-1.29,-1.72h-2.15h-21.5c-4.7429,0 -8.6,-3.8571 -8.6,-8.6v-43c0,-4.7429 3.8571,-8.6 8.6,-8.6h68.8M120.4,4.3h-68.8c-7.1251,0 -12.9,5.7749 -12.9,12.9v43c0,7.1251 5.7749,12.9 12.9,12.9h21.5l12.9,17.2l12.9,-17.2h21.5c7.1251,0 12.9,-5.7749 12.9,-12.9v-43c0,-7.1251 -5.7749,-12.9 -12.9,-12.9z" fill="#4788c7"></path><path d="M79.98,56.76l-15.05,-15.05l6.02,-6.02l9.03,9.03l23.65,-23.65l6.02,6.02zM43,88.15c-10.68671,0 -19.35,8.66329 -19.35,19.35c0,10.68671 8.66329,19.35 19.35,19.35c10.68671,0 19.35,-8.66329 19.35,-19.35c0,-10.68671 -8.66329,-19.35 -19.35,-19.35z" fill="#ffffff"></path><path d="M43,90.3c9.4858,0 17.2,7.7142 17.2,17.2c0,9.4858 -7.7142,17.2 -17.2,17.2c-9.4858,0 -17.2,-7.7142 -17.2,-17.2c0,-9.4858 7.7142,-17.2 17.2,-17.2M43,86c-11.8723,0 -21.5,9.6277 -21.5,21.5c0,11.8723 9.6277,21.5 21.5,21.5c11.8723,0 21.5,-9.6277 21.5,-21.5c0,-11.8723 -9.6277,-21.5 -21.5,-21.5z" fill="#4788c7"></path><path d="M10.8231,165.55c1.1094,-16.7829 15.1188,-30.1 32.1769,-30.1c17.0581,0 31.0718,13.3171 32.1769,30.1z" fill="#b6dcfe"></path><path d="M43,137.6c15.136,0 27.7006,11.2316 29.7947,25.8h-59.5894c2.0941,-14.5684 14.6587,-25.8 29.7947,-25.8M43,133.3c-18.9974,0 -34.4,15.4026 -34.4,34.4h68.8c0,-18.9974 -15.4026,-34.4 -34.4,-34.4z" fill="#4788c7"></path><path d="M129,88.15c-10.68671,0 -19.35,8.66329 -19.35,19.35c0,10.68671 8.66329,19.35 19.35,19.35c10.68671,0 19.35,-8.66329 19.35,-19.35c0,-10.68671 -8.66329,-19.35 -19.35,-19.35z" fill="#ffffff"></path><path d="M129,90.3c9.4858,0 17.2,7.7142 17.2,17.2c0,9.4858 -7.7142,17.2 -17.2,17.2c-9.4858,0 -17.2,-7.7142 -17.2,-17.2c0,-9.4858 7.7142,-17.2 17.2,-17.2M129,86c-11.8723,0 -21.5,9.6277 -21.5,21.5c0,11.8723 9.6277,21.5 21.5,21.5c11.8723,0 21.5,-9.6277 21.5,-21.5c0,-11.8723 -9.6277,-21.5 -21.5,-21.5z" fill="#4788c7"></path><path d="M96.8231,165.55c1.1094,-16.7829 15.1188,-30.1 32.1769,-30.1c17.0581,0 31.0718,13.3171 32.1769,30.1z" fill="#b6dcfe"></path><path d="M129,137.6c15.136,0 27.7006,11.2316 29.7947,25.8h-59.5894c2.0941,-14.5684 14.6587,-25.8 29.7947,-25.8M129,133.3c-18.9974,0 -34.4,15.4026 -34.4,34.4h68.8c0,-18.9974 -15.4026,-34.4 -34.4,-34.4z" fill="#4788c7"></path></g></g></svg>