<svg xmlns="http://www.w3.org/2000/svg" x="0px" y="0px"
width="40" height="40"
viewBox="0 0 172 172"
style=" fill:#000000;"><g fill="none" fill-rule="nonzero" stroke="none" stroke-width="1" stroke-linecap="none" stroke-linejoin="miter" stroke-miterlimit="10" stroke-dasharray="" stroke-dashoffset="0" font-family="none" font-weight="none" font-size="none" text-anchor="none" style="mix-blend-mode: normal"><path d="M0,172v-172h172v172z" fill="none" stroke="none" stroke-linecap="butt"></path><g><path d="M43,77.4h86v51.6h-86z" fill="#4788c7" stroke="none" stroke-linecap="butt"></path><path d="M98.9,111.8c0,10.4146 -5.7749,17.2 -12.9,17.2v0v0c-7.1251,0 -12.9,-6.7854 -12.9,-17.2v-14.2244h25.8z" fill="#b6dcfe" stroke="none" stroke-linecap="butt"></path><path d="M19.4016,165.55c1.2814,-26.8148 26.2988,-48.1987 49.7123,-51.6215l1.9178,0.0086c0.8428,10.8231 8.0195,17.2129 14.9683,17.2129c6.9488,0 14.1212,-6.3855 14.964,-17.2h2.236c23.5339,3.7496 48.1815,23.9682 49.4027,51.6z" fill="#dff0fe" stroke="none" stroke-linecap="butt"></path><path d="M69.1139,116.1c1.634,10.8532 9.374,17.2 16.8861,17.2c7.5078,0 15.2478,-6.3468 16.8861,-17.1957c22.2224,3.6765 45.0554,22.0547 47.4161,47.2957h-128.5872c2.4596,-24.5745 25.6022,-43.9632 47.3989,-47.3M103.2,111.8h-4.3c0,10.4146 -6.3898,17.2 -12.9,17.2c-6.5102,0 -12.9,-6.7854 -12.9,-17.2h-4.3c-24.9572,3.6464 -51.6,26.789 -51.6,55.9h137.6c0,-29.111 -25.2367,-51.729 -51.6,-55.9z" fill="#4788c7" stroke="none" stroke-linecap="butt"></path><path d="M86,111.8c-15.3682,0 -34.4,-22.1751 -34.4,-43v-43h68.8v42.7807c0,20.8249 -19.0318,43.2193 -34.4,43.2193z" fill="#ffffff" stroke="none" stroke-linecap="butt"></path><path d="M86,96.75c-7.2412,0 -9.6492,-3.5991 -10.4232,-5.547c2.236,-1.4663 5.2073,-3.053 6.6607,-3.053c1.2642,0 1.5867,1.5136 1.6383,1.8146l4.2656,-0.1419c0.0774,-0.6063 0.4472,-1.677 2.0253,-1.677c1.9866,0 4.7945,1.8103 6.3941,3.0229c-0.5461,1.8619 -2.6316,5.5814 -10.5608,5.5814z" fill="#4788c7" stroke="none" stroke-linecap="butt"></path><path d="M90.3,90.0807c-0.0516,0.086 -0.215,0.2107 -0.3182,0.2322c0,0 0.0559,-0.0129 0.1806,-0.0129c0.817,0 2.2661,0.688 3.6679,1.5824c-0.9503,1.2599 -3.0831,2.7176 -7.8303,2.7176c-4.2054,0 -6.3812,-1.3631 -7.4992,-2.666c1.6082,-0.9202 3.1046,-1.5953 3.7367,-1.634c-0.0602,0 -0.1376,-0.0172 -0.2193,-0.0473l8.2818,-0.172M90.1667,86c-3.8313,0 -4.1667,3.6292 -4.1667,3.6292c0,0 -0.5375,-3.6292 -3.7625,-3.6292c-3.225,0 -9.1375,4.3 -9.1375,4.3c0,0 1.2083,8.6 12.9,8.6c12.4958,0 12.9,-8.6 12.9,-8.6c0,0 -4.9063,-4.3 -8.7333,-4.3z" fill="#4788c7" stroke="none" stroke-linecap="butt"></path><path d="M90.3,60.2c0,0 5.9555,4.3 12.9,4.3c6.9445,0 12.9,-0.9589 12.9,-4.3c0,-3.3411 -4.1624,-5.6244 -11.1069,-5.6244c-6.9445,0 -14.6931,5.6244 -14.6931,5.6244z" fill="#dff0fe" stroke="none" stroke-linecap="butt"></path><path d="M107.5,60.2c0,-2.58 -1.72,-4.3 -4.3,-4.3c-2.58,0 -4.3,1.72 -4.3,4.3c0,2.58 1.72,4.3 4.3,4.3c2.58,0 4.3,-1.72 4.3,-4.3" fill="#4788c7" stroke="none" stroke-linecap="butt"></path><path d="M92.45,49.45c4.4763,-3.4658 10.6984,-4.3 23.65,-4.3M79.55,49.45c-4.4763,-3.4658 -10.6984,-4.3 -23.65,-4.3" fill="none" stroke="#4788c7" stroke-linecap="round"></path><path d="M120.4,60.2c0.4085,-0.8342 0,-4.4806 0,-4.4806c0,0 -3.4314,-4.1194 -12.9,-4.1194c-11.1327,0 -17.2,8.6 -17.2,8.6c0,0 5.8652,-2.4209 12.8097,-2.4209c5.3105,0.0043 15.6563,-0.086 17.2903,2.4209z" fill="#4788c7" stroke="none" stroke-linecap="butt"></path><path d="M81.7,60.2c0,0 -5.9555,4.3 -12.9,4.3c-6.9445,0 -12.9,-0.9589 -12.9,-4.3c0,-3.3411 4.1624,-5.6244 11.1069,-5.6244c6.9445,0 14.6931,5.6244 14.6931,5.6244z" fill="#dff0fe" stroke="none" stroke-linecap="butt"></path><path d="M64.5,60.2c0,-2.58 1.72,-4.3 4.3,-4.3c2.58,0 4.3,1.72 4.3,4.3c0,2.58 -1.72,4.3 -4.3,4.3c-2.58,0 -4.3,-1.72 -4.3,-4.3" fill="#4788c7" stroke="none" stroke-linecap="butt"></path><path d="M51.6,60.2c-0.4085,-0.8342 0,-4.4806 0,-4.4806c0,0 3.4314,-4.1194 12.9,-4.1194c11.1327,0 17.2,8.6 17.2,8.6c0,0 -6.2264,-2.7778 -13.1709,-2.7778c-5.3062,0 -15.2951,0.2709 -16.9291,2.7778z" fill="#4788c7" stroke="none" stroke-linecap="butt"></path><path d="M120.8214,165.55c-1.3846,-0.6149 -6.8714,-3.5002 -6.8714,-10.75c0,-8.1571 3.6034,-10.2469 3.7582,-10.3329c0.7224,-0.3999 1.1739,-1.1954 1.1266,-2.021c-0.0516,-0.8256 -0.5461,-1.5652 -1.3115,-1.8791c-0.3139,-0.129 -7.8733,-3.3626 -7.8733,-11.567c0,-8.213 7.1036,-10.8489 7.1767,-10.8747c0.7912,-0.2838 1.3459,-1.0019 1.4147,-1.8404c0.0688,-0.8385 -0.3483,-1.6426 -1.0836,-2.0554c-8.3764,-4.7472 -7.8174,-12.8699 -7.5938,-14.6071c0.7267,-1.2599 1.4577,-2.3435 2.1715,-3.397c3.4959,-5.1772 6.5145,-9.6449 6.5145,-27.4254c0,-26.7245 -11.1542,-40.85 -32.25,-40.85c-21.0958,0 -32.25,14.1255 -32.25,40.85c0,17.7805 3.0186,22.2482 6.5145,27.4211c0.7138,1.0535 1.4448,2.1371 2.1758,3.397c0.2236,1.72 0.7912,9.8556 -7.5981,14.6071c-0.7353,0.4128 -1.1567,1.2169 -1.0836,2.0554c0.0731,0.8385 0.6278,1.5566 1.4147,1.8404c0.2838,0.1075 7.1767,2.752 7.1767,10.879c0,8.2775 -7.7959,11.5369 -7.8733,11.567c-0.7869,0.3182 -1.3072,1.0707 -1.3416,1.9135c-0.0301,0.8471 0.4429,1.634 1.1997,2.0081c0.1075,0.0602 3.7109,2.15 3.7109,10.3071c0,7.2326 -5.5083,10.1394 -6.8757,10.75h-48.934c0.4902,-6.106 3.139,-8.7677 6.6822,-12.3109l1.2212,-1.2341c0.5246,-0.5375 0.7353,-1.3115 0.5461,-2.0425c-0.1892,-0.731 -0.7439,-1.3072 -1.4663,-1.5222c-0.2795,-0.0817 -7.0692,-2.3005 -7.0692,-10.5393c0,-8.127 9.1074,-11.1198 9.202,-11.1499c0.8213,-0.2623 1.4061,-0.989 1.4921,-1.8447c0.0817,-0.86 -0.3569,-1.6813 -1.118,-2.0941c-0.1978,-0.1118 -5.2761,-3.0702 -5.2761,-11.008c0,-7.7701 9.0816,-11.1757 9.1762,-11.2101c0.8342,-0.3053 1.4018,-1.0922 1.4147,-1.9823c0.0172,-0.8901 -0.5117,-1.6985 -1.3416,-2.0339c-0.1763,-0.0774 -4.9493,-2.2618 -4.9493,-10.5737c0,-8.1786 6.2909,-10.5909 6.8413,-10.7844c0.7869,-0.1462 1.4405,-0.7181 1.6727,-1.5093c0.0602,-0.1935 5.8093,-19.5306 16.9807,-38.2012c14.7232,-25.6065 33.411,-29.0551 49.7553,-29.0551c16.3443,0 35.0321,3.4486 49.7338,29.0207c11.1972,18.705 16.942,38.0421 17.0022,38.2356c0.2322,0.7869 0.8858,1.3631 1.6727,1.5093c0.5504,0.1935 6.8413,2.6058 6.8413,10.7844c0,8.3119 -4.773,10.4963 -4.9794,10.5866c-0.8041,0.3526 -1.3244,1.1653 -1.2986,2.0468c0.0301,0.8772 0.5762,1.6555 1.4018,1.9608c0.0903,0.0344 9.1762,3.44 9.1762,11.2101c0,7.9378 -5.0783,10.8962 -5.289,11.0209c-0.7439,0.4214 -1.1696,1.247 -1.0879,2.0941c0.0903,0.8471 0.6579,1.5695 1.4706,1.8361c0.3784,0.1204 9.2106,3.0831 9.2106,11.1499c0,8.2388 -6.7897,10.4576 -7.0778,10.5479c-0.7138,0.2236 -1.2642,0.8041 -1.4491,1.5265c-0.1806,0.7224 0.0172,1.4964 0.5418,2.0296l1.2212,1.2341c3.5389,3.5432 6.1877,6.2049 6.6822,12.3109h-48.9512z" fill="#65c2ec" stroke="none" stroke-linecap="butt"></path><path d="M86,8.6c15.7294,0 33.7163,3.3196 47.9106,28.0102c11.0252,18.4126 16.7055,37.5132 16.7614,37.7024c0.4429,1.5093 1.6684,2.6316 3.1519,2.9756c0.6837,0.2666 5.2761,2.3048 5.2761,8.7118c0,6.6478 -3.3454,8.4495 -3.612,8.5828c-1.6426,0.6665 -2.7004,2.279 -2.6703,4.0549c0.0258,1.7759 1.1524,3.354 2.8122,3.9732c0.0774,0.0258 7.7701,2.9541 7.7701,9.1891c0,6.5833 -4.0463,9.0558 -4.1495,9.1203c-1.505,0.817 -2.3693,2.4553 -2.2188,4.1624c0.1505,1.7071 1.3158,3.1648 2.9412,3.7066c0.3139,0.1032 7.7271,2.6359 7.7271,9.1074c0,6.4758 -5.0138,8.3119 -5.5341,8.4839c-1.4405,0.43 -2.5542,1.5867 -2.9283,3.0444c-0.3784,1.4577 0.0344,3.0057 1.0879,4.0807l1.2427,1.2513c2.881,2.8896 4.902,4.9149 5.7233,8.643h-45.9971c-1.4448,-0.731 -5.1944,-3.1519 -5.1944,-8.6c0,-6.0458 2.1414,-8.0496 2.6187,-8.4194c1.591,-0.6278 2.4467,-2.0726 2.4897,-3.8012c0.0473,-1.763 -1.2212,-3.2938 -2.8466,-3.9861c-0.2666,-0.1161 -6.5618,-2.8767 -6.5618,-9.5933c0,-6.4543 5.203,-8.6387 5.7491,-8.8537c1.5824,-0.5676 2.6918,-2.0038 2.8337,-3.6808c0.1419,-1.677 -0.7009,-3.2809 -2.1672,-4.1108c-6.7209,-3.8055 -6.7639,-9.9975 -6.5747,-12.0357c0.6063,-1.0191 1.2255,-1.935 1.8705,-2.8939c3.5432,-5.2374 6.8886,-10.1867 6.8886,-28.6251c0,-27.7307 -12.2163,-43 -34.4,-43c-22.1837,0 -34.4,15.2693 -34.4,43c0,18.4384 3.3454,23.3877 6.8843,28.6294c0.645,0.9546 1.2642,1.8705 1.8705,2.8896c0.1892,2.0855 0.1247,8.2474 -6.5704,12.04c-1.462,0.8299 -2.3091,2.4338 -2.1672,4.1108c0.1419,1.677 1.2513,3.1132 2.8337,3.6808c0.0559,0.0172 5.7491,2.1328 5.7491,8.8494c0,6.7166 -6.2952,9.4772 -6.5317,9.5761c-1.6469,0.6708 -2.9283,2.193 -2.8939,3.9732c0.0301,1.7415 0.903,3.1992 2.5112,3.8313c0.473,0.3698 2.6144,2.3736 2.6144,8.4194c0,5.4481 -3.7066,7.8561 -5.1901,8.6h-46.0014c0.8213,-3.7281 2.8423,-5.7534 5.7233,-8.643l1.2427,-1.2513c1.0363,-1.0621 1.4233,-2.5929 1.075,-4.0334c-0.3526,-1.4405 -1.4534,-2.6101 -2.8638,-3.0745c-0.5719,-0.1892 -5.5857,-2.0253 -5.5857,-8.5011c0,-6.4715 7.4132,-9.0042 7.7013,-9.0988c1.6426,-0.5246 2.8122,-1.9737 2.9756,-3.6894c0.1634,-1.7157 -0.7138,-3.3626 -2.2317,-4.1839c-0.0387,-0.0258 -4.1452,-2.4424 -4.1452,-9.1246c0,-6.235 7.6927,-9.1633 7.7486,-9.1848c1.677,-0.602 2.8681,-2.1543 2.9025,-3.9345c0.0344,-1.7802 -0.9761,-3.3755 -2.6273,-4.0463c-0.3784,-0.1849 -3.7238,-1.9866 -3.7238,-8.6344c0,-6.407 4.5881,-8.4452 5.2718,-8.7118c1.4878,-0.344 2.709,-1.4663 3.1519,-2.9799c0.0559,-0.1892 5.7104,-19.2425 16.8001,-37.7669c14.1599,-24.6218 32.1468,-27.9414 47.8762,-27.9414M86,4.3c-13.4805,0 -35.26,1.6813 -51.6,30.1c-11.4595,19.1436 -17.2,38.7 -17.2,38.7c-0.4085,0 -8.6,2.8853 -8.6,12.9c0,10.0147 6.2952,12.5689 6.2952,12.5689c0,0 -10.5952,3.8055 -10.5952,13.2311c0,9.4256 6.3984,12.9 6.3984,12.9c0,0 -10.6984,3.4056 -10.6984,13.1967c0,10.0276 8.6,12.6033 8.6,12.6033c-4.4935,4.5967 -8.6,7.7744 -8.6,17.2h51.6c0,0 8.6,-3.0788 8.6,-12.9c0,-9.8212 -4.9149,-12.2378 -4.9149,-12.2378c0,0 9.2149,-3.741 9.2149,-13.5622c0,-9.8212 -8.6,-12.9 -8.6,-12.9c10.75,-6.0888 8.6,-17.2 8.6,-17.2c-4.1925,-7.4691 -8.6,-8.8064 -8.6,-30.1c0,-22.7814 8.4495,-38.7 30.1,-38.7c21.6505,0 30.1,15.9186 30.1,38.7c0,21.2936 -4.4075,22.6309 -8.6,30.1c0,0 -2.15,11.1112 8.6,17.2c0,0 -8.6,3.0788 -8.6,12.9c0,9.8212 9.2149,13.5622 9.2149,13.5622c0,0 -4.9149,2.4166 -4.9149,12.2378c0,9.8212 8.6,12.9 8.6,12.9h51.6c0,-9.4256 -4.1065,-12.6033 -8.6,-17.2c0,0 8.6,-2.5757 8.6,-12.6033c0,-9.7911 -10.6984,-13.1967 -10.6984,-13.1967c0,0 6.3984,-3.4744 6.3984,-12.9c0,-9.4256 -10.5952,-13.2311 -10.5952,-13.2311c0,0 6.2952,-2.5542 6.2952,-12.5689c0,-10.0147 -8.1915,-12.9 -8.6,-12.9c0,0 -5.7405,-19.5564 -17.2,-38.7c-16.34,-28.4187 -38.1195,-30.1 -51.6,-30.1z" fill="#4788c7" stroke="none" stroke-linecap="butt"></path><path d="M50.6067,163.4l-45.9025,0.0172l-0.4042,4.2828h38.6484z" fill="#4788c7" stroke="none" stroke-linecap="butt"></path><path d="M32.25,77.4c1.1868,0 2.15,-0.9632 2.15,-2.15c0,-1.1868 -0.9632,-2.15 -2.15,-2.15c-3.7625,0 -10.75,2.8853 -10.75,12.9c0,10.0147 6.9101,12.5689 6.9101,12.5689c0,0 -11.2101,3.8055 -11.2101,13.2311c0,9.4256 7.0133,12.9 7.0133,12.9c0,0 -11.3133,3.1046 -11.3133,12.9c0,10.0276 9.2149,12.9 9.2149,12.9c-4.4935,4.5967 -9.2149,7.7744 -9.2149,17.2h4.3c0,-6.9488 3.8657,-10.0534 6.7467,-12.943l1.2427,-1.2513c1.0535,-1.075 1.4663,-2.623 1.0879,-4.0807c-0.3784,-1.4577 -1.4878,-2.6101 -2.9283,-3.0444c-0.0559,-0.0172 -6.149,-2.0339 -6.149,-8.7806c0,-6.4715 8.0238,-8.7075 8.3162,-8.8021c1.6125,-0.5117 2.7391,-1.9479 2.9326,-3.6335c0.1935,-1.6856 -0.6579,-3.3454 -2.1156,-4.2097c-0.172,-0.0989 -4.8332,-2.5714 -4.8332,-9.1547c0,-6.235 8.3076,-9.1633 8.3635,-9.1848c1.677,-0.602 2.8681,-2.1543 2.9025,-3.9345c0.0344,-1.7845 -0.9761,-3.3798 -2.6273,-4.0463c-0.3784,-0.1849 -4.3387,-1.9866 -4.3387,-8.6344c0,-6.407 5.1041,-8.6 6.45,-8.6zM49.45,86c1.1868,0 2.15,-0.9632 2.15,-2.15c0,-1.1868 -0.9632,-2.15 -2.15,-2.15c-3.7625,0 -10.75,2.8853 -10.75,12.9c0,10.0147 6.9101,12.5689 6.9101,12.5689c0,0 -11.2101,3.8055 -11.2101,13.2311c0,9.4256 7.0133,12.9 7.0133,12.9c0,0 -11.3133,3.1046 -11.3133,12.9c0,10.0276 9.2149,12.9 9.2149,12.9c-2.7477,2.8079 -5.5642,5.0998 -7.3487,8.6h5.1815c1.247,-1.6985 2.7176,-3.053 4.0033,-4.343l1.2427,-1.2513c1.0535,-1.075 1.4663,-2.623 1.0879,-4.0807c-0.3784,-1.4577 -1.4878,-2.6101 -2.9283,-3.0444c-0.0602,-0.0172 -6.1533,-2.0339 -6.1533,-8.7806c0,-6.4715 8.0238,-8.7075 8.3162,-8.8021c1.6125,-0.5117 2.7391,-1.9479 2.9326,-3.6335c0.1935,-1.6856 -0.6579,-3.3454 -2.1156,-4.2097c-0.172,-0.0989 -4.8332,-2.5714 -4.8332,-9.1547c0,-6.235 8.3076,-9.1633 8.3635,-9.1848c1.677,-0.602 2.8681,-2.1543 2.9025,-3.9345c0.0344,-1.7845 -0.9761,-3.3798 -2.6273,-4.0463c-0.3784,-0.1849 -4.3387,-1.9866 -4.3387,-8.6344c0,-6.407 5.1041,-8.6 6.45,-8.6zM121.3933,163.4l45.9025,0.0172l0.4042,4.2828h-38.6484z" fill="#4788c7" stroke="none" stroke-linecap="butt"></path><path d="M139.75,77.4c-1.1868,0 -2.15,-0.9632 -2.15,-2.15c0,-1.1868 0.9632,-2.15 2.15,-2.15c3.7625,0 10.75,2.8853 10.75,12.9c0,10.0147 -6.9101,12.5689 -6.9101,12.5689c0,0 11.2101,3.8055 11.2101,13.2311c0,9.4256 -7.0133,12.9 -7.0133,12.9c0,0 11.3133,3.1046 11.3133,12.9c0,10.0276 -9.2149,12.9 -9.2149,12.9c4.4935,4.5967 9.2149,7.7744 9.2149,17.2h-4.3c0,-6.9488 -3.8657,-10.0534 -6.7467,-12.943l-1.2427,-1.2513c-1.0535,-1.075 -1.4663,-2.623 -1.0879,-4.0807c0.3784,-1.4577 1.4878,-2.6101 2.9283,-3.0444c0.0559,-0.0172 6.149,-2.0339 6.149,-8.7806c0,-6.4715 -8.0238,-8.7075 -8.3162,-8.8021c-1.6125,-0.5117 -2.7391,-1.9479 -2.9326,-3.6335c-0.1935,-1.6856 0.6579,-3.3454 2.1156,-4.2097c0.172,-0.0989 4.8332,-2.5714 4.8332,-9.1547c0,-6.235 -8.3076,-9.1633 -8.3635,-9.1848c-1.677,-0.602 -2.8681,-2.1543 -2.9025,-3.9345c-0.0344,-1.7845 0.9761,-3.3798 2.6273,-4.0463c0.3784,-0.1849 4.3387,-1.9866 4.3387,-8.6344c0,-6.407 -5.1041,-8.6 -6.45,-8.6zM122.55,86c-1.1868,0 -2.15,-0.9632 -2.15,-2.15c0,-1.1868 0.9632,-2.15 2.15,-2.15c3.7625,0 10.75,2.8853 10.75,12.9c0,10.0147 -6.9101,12.5689 -6.9101,12.5689c0,0 11.2101,3.8055 11.2101,13.2311c0,9.4256 -7.0133,12.9 -7.0133,12.9c0,0 11.3133,3.1046 11.3133,12.9c0,10.0276 -9.2149,12.9 -9.2149,12.9c2.7477,2.8079 5.5642,5.0998 7.3487,8.6h-5.1815c-1.247,-1.6985 -2.7176,-3.053 -4.0033,-4.343l-1.2427,-1.2513c-1.0535,-1.075 -1.4663,-2.623 -1.0879,-4.0807c0.3784,-1.4577 1.4878,-2.6101 2.9283,-3.0444c0.0602,-0.0172 6.1533,-2.0339 6.1533,-8.7806c0,-6.4715 -8.0238,-8.7075 -8.3162,-8.8021c-1.6125,-0.5117 -2.7391,-1.9479 -2.9326,-3.6335c-0.1935,-1.6856 0.6579,-3.3454 2.1156,-4.2097c0.172,-0.0989 4.8332,-2.5714 4.8332,-9.1547c0,-6.235 -8.3076,-9.1633 -8.3635,-9.1848c-1.677,-0.602 -2.8681,-2.1543 -2.9025,-3.9345c-0.0344,-1.7845 0.9761,-3.3798 2.6273,-4.0463c0.3784,-0.1849 4.3387,-1.9866 4.3387,-8.6344c0,-6.407 -5.1084,-8.6 -6.45,-8.6z" fill="#4788c7" stroke="none" stroke-linecap="butt"></path></g></g></svg>